<svg width="400" height="326" viewBox="0 0 400 326" fill="none" xmlns="http://www.w3.org/2000/svg">
<g clip-path="url(#clip0_199_618)">
<mask id="mask0_199_618" style="mask-type:luminance" maskUnits="userSpaceOnUse" x="0" y="0" width="400" height="326">
<path d="M400 0.785156H0V325.185H400V0.785156Z" fill="white"/>
</mask>
<g mask="url(#mask0_199_618)">
<path d="M400 289.059H0V289.259H400V289.059Z" fill="#EBEBEB"/>
<path d="M359.918 301.938H333.422V302.138H359.918V301.938Z" fill="#EBEBEB"/>
<path d="M218.578 299.426H208.266V299.626H218.578V299.426Z" fill="#EBEBEB"/>
<path d="M279.735 300.273H258.023V300.473H279.735V300.273Z" fill="#EBEBEB"/>
<path d="M332.622 294.508H287.734V294.708H332.622V294.508Z" fill="#EBEBEB"/>
<path d="M63.1926 303.762H41.9688V303.962H63.1926V303.762Z" fill="#EBEBEB"/>
<path d="M88.7125 303.762H70.3125V303.962H88.7125V303.762Z" fill="#EBEBEB"/>
<path d="M153.449 299.328H104.801V299.528H153.449V299.328Z" fill="#EBEBEB"/>
<path d="M189.61 253.378H35.1383C32.6183 253.378 30.5703 251.33 30.5703 248.81V31.6657C30.5703 29.1457 32.6183 27.0977 35.1383 27.0977H189.618C192.138 27.0977 194.186 29.1457 194.186 31.6657V248.81C194.178 251.33 192.13 253.378 189.61 253.378ZM35.1383 27.2977C32.7303 27.2977 30.7703 29.2577 30.7703 31.6657V248.81C30.7703 251.218 32.7303 253.178 35.1383 253.178H189.618C192.026 253.178 193.986 251.218 193.986 248.81V31.6657C193.986 29.2577 192.026 27.2977 189.618 27.2977H35.1383Z" fill="#EBEBEB"/>
<path d="M362.65 253.378H208.17C205.65 253.378 203.602 251.33 203.602 248.81V31.6657C203.602 29.1457 205.65 27.0977 208.17 27.0977H362.65C365.17 27.0977 367.218 29.1457 367.218 31.6657V248.81C367.218 251.33 365.17 253.378 362.65 253.378ZM208.17 27.2977C205.762 27.2977 203.802 29.2577 203.802 31.6657V248.81C203.802 251.218 205.762 253.178 208.17 253.178H362.65C365.058 253.178 367.018 251.218 367.018 248.81V31.6657C367.018 29.2577 365.058 27.2977 362.65 27.2977H208.17Z" fill="#EBEBEB"/>
<path d="M373.654 138.473C376.254 129.449 375.782 120.265 372.862 112.041C375.142 108.777 376.942 105.089 378.11 101.049C383.47 82.4728 373.702 63.1288 356.078 56.1608C352.678 31.8248 335.406 10.5608 310.278 3.31276C290.414 -2.41525 270.038 1.88875 254.542 13.2248C250.662 9.16876 245.702 6.04076 239.926 4.37676C222.502 -0.647252 204.302 9.40076 199.278 26.8248C198.438 29.7368 198.03 32.6728 197.998 35.5688C180.462 39.1048 165.446 52.0248 160.15 70.4008C155.39 86.9048 159.606 103.873 169.902 116.089C168.574 118.497 167.478 121.081 166.686 123.833C160.982 143.617 172.39 164.273 192.174 169.977C198.694 171.857 205.31 171.865 211.454 170.345C218.726 180.369 229.262 188.145 242.078 191.841C258.582 196.601 275.47 193.641 288.91 185.113C294.926 199.105 299.87 220.097 289.23 240.681C327.902 236.889 355.838 199.793 350.142 165.801C361.174 160.721 370.022 151.065 373.654 138.473Z" fill="#EBEBEB"/>
<path d="M299.462 232.999C299.254 232.999 299.046 232.919 298.894 232.767C298.686 232.559 298.606 232.263 298.686 231.975C304.134 212.999 299.166 194.807 294.046 182.887L291.446 176.847L285.894 180.367C277.518 185.687 267.878 188.495 258.03 188.495C253.174 188.495 248.326 187.807 243.614 186.447C232.39 183.207 222.83 176.495 215.966 167.039L213.75 163.983L210.086 164.895C204.71 166.231 199.054 166.127 193.702 164.583C185.574 162.239 178.846 156.871 174.75 149.463C170.662 142.055 169.702 133.503 172.046 125.367C172.702 123.095 173.622 120.879 174.782 118.783L176.646 115.407L174.158 112.463C164.67 101.207 161.43 86.0549 165.502 71.9349C170.062 56.1349 182.926 44.2948 199.078 41.0388L203.518 40.1428L203.566 35.6148C203.59 33.1508 203.95 30.7108 204.63 28.3588C207.998 16.7828 218.758 8.67881 230.806 8.67881C233.35 8.67881 235.894 9.03881 238.366 9.75082C242.982 11.0868 247.174 13.6228 250.486 17.0868L253.878 20.6388L257.838 17.7428C267.862 10.4148 280.158 6.38281 292.478 6.38281C297.95 6.38281 303.414 7.15881 308.726 8.69481C330.926 15.0948 347.334 34.0308 350.534 56.9349L350.982 60.1669L354.022 61.3669C369.222 67.3749 377.27 83.7669 372.734 99.4949C371.766 102.839 370.27 105.975 368.278 108.831L366.63 111.191L367.59 113.911C370.238 121.359 370.47 129.319 368.278 136.919C365.238 147.447 357.774 156.119 347.798 160.711L343.91 162.503L344.614 166.727C347.046 181.231 342.678 197.071 332.63 210.191C324.262 221.119 312.566 229.207 299.686 232.967C299.614 232.991 299.534 232.999 299.462 232.999ZM291.822 174.879C291.902 174.879 291.982 174.887 292.062 174.911C292.286 174.983 292.47 175.143 292.558 175.359L295.526 182.255C300.63 194.119 305.566 212.087 300.622 230.999C312.63 227.167 323.502 219.471 331.366 209.207C341.142 196.439 345.398 181.047 343.046 166.983L342.238 162.159C342.182 161.799 342.366 161.455 342.694 161.303L347.142 159.255C356.702 154.855 363.846 146.551 366.758 136.471C368.854 129.191 368.63 121.575 366.094 114.439L364.99 111.335C364.902 111.095 364.942 110.823 365.086 110.607L366.974 107.903C368.87 105.191 370.294 102.207 371.206 99.0389C375.51 84.1109 367.878 68.5509 353.446 62.8469L349.974 61.4789C349.71 61.3749 349.518 61.1349 349.478 60.8469L348.958 57.1509C345.846 34.8708 329.886 16.4468 308.294 10.2228C303.118 8.73481 297.798 7.98281 292.478 7.98281C280.494 7.98281 268.534 11.9108 258.798 19.0308L254.27 22.3428C253.942 22.5828 253.494 22.5428 253.222 22.2468L249.342 18.1908C246.222 14.9268 242.278 12.5428 237.934 11.2868C235.606 10.6148 233.214 10.2708 230.814 10.2708C219.47 10.2708 209.342 17.8948 206.198 28.8148C205.558 31.0308 205.222 33.3268 205.198 35.6388L205.142 40.8148C205.134 41.1908 204.87 41.5188 204.502 41.5908L199.422 42.6148C183.854 45.7508 171.462 57.1589 167.07 72.3829C163.15 85.9909 166.262 100.583 175.414 111.431L178.254 114.799C178.47 115.055 178.502 115.415 178.342 115.703L176.206 119.559C175.102 121.551 174.23 123.655 173.606 125.815C171.382 133.535 172.294 141.655 176.174 148.687C180.062 155.719 186.446 160.815 194.166 163.047C199.246 164.511 204.614 164.607 209.718 163.343L213.91 162.303C214.222 162.223 214.558 162.343 214.75 162.607L217.286 166.103C223.934 175.271 233.198 181.775 244.078 184.911C248.646 186.231 253.35 186.895 258.054 186.895C267.598 186.895 276.934 184.167 285.062 179.015L291.406 174.991C291.518 174.927 291.67 174.879 291.822 174.879Z" fill="white"/>
<path d="M243.354 100.087L221.914 96.7508L222.25 94.6068C222.818 90.9588 223.69 88.0628 224.874 85.9108C226.058 83.7668 227.61 81.8788 229.538 80.2468C231.466 78.6228 235.658 75.8788 242.114 72.0308C245.546 70.0228 247.426 67.9828 247.746 65.9188C248.066 63.8468 247.706 62.1428 246.666 60.8068C245.618 59.4708 243.858 58.6068 241.378 58.2228C238.706 57.8068 236.362 58.3508 234.338 59.8388C232.314 61.3348 230.714 64.2468 229.538 68.5748L208.066 62.4548C210.074 54.5188 214.002 48.4948 219.866 44.3827C225.73 40.2627 233.922 39.0307 244.458 40.6707C252.658 41.9507 259.01 44.6947 263.522 48.8948C269.65 54.5908 272.114 61.2948 270.914 68.9988C270.418 72.1988 269.05 75.1428 266.818 77.8388C264.586 80.5348 260.41 83.6068 254.29 87.0388C250.018 89.4548 247.25 91.5028 245.97 93.1668C244.682 94.8548 243.81 97.1508 243.354 100.087ZM220.29 102.335L243.258 105.911L240.106 126.167L217.138 122.591L220.29 102.335Z" fill="white"/>
<path d="M298.074 131.48L286.17 121.84L287.138 120.648C288.778 118.624 290.338 117.16 291.826 116.272C293.306 115.384 294.93 114.784 296.682 114.472C298.434 114.16 301.97 113.976 307.274 113.92C310.082 113.912 311.954 113.336 312.882 112.184C313.81 111.032 314.194 109.864 314.034 108.68C313.874 107.496 313.098 106.344 311.722 105.224C310.242 104.024 308.618 103.52 306.85 103.712C305.082 103.904 303.074 105.112 300.826 107.344L289.89 95.992C293.93 91.864 298.466 89.576 303.506 89.144C308.546 88.712 313.986 90.864 319.834 95.6C324.386 99.288 327.29 103.216 328.554 107.384C330.274 113.032 329.402 118 325.93 122.28C324.49 124.056 322.61 125.368 320.298 126.224C317.978 127.08 314.338 127.472 309.386 127.4C305.922 127.36 303.506 127.624 302.13 128.192C300.746 128.752 299.394 129.848 298.074 131.48ZM283.202 124.672L295.954 135L286.842 146.248L274.09 135.92L283.202 124.672Z" fill="white"/>
<path d="M301.407 62.1846L296.255 55.1445L296.959 54.6325C298.159 53.7525 299.231 53.1766 300.175 52.9046C301.119 52.6326 302.095 52.5365 303.111 52.6165C304.119 52.7045 306.095 53.1126 309.023 53.8486C310.567 54.2486 311.679 54.2086 312.359 53.7046C313.039 53.2086 313.415 52.6165 313.503 51.9445C313.583 51.2645 313.327 50.5205 312.735 49.7045C312.095 48.8245 311.271 48.3125 310.271 48.1685C309.271 48.0165 307.991 48.3925 306.431 49.2885L302.055 41.4565C304.879 39.7685 307.703 39.1685 310.543 39.6645C313.383 40.1605 316.063 42.1285 318.591 45.5845C320.559 48.2725 321.591 50.8566 321.679 53.3366C321.807 56.6966 320.607 59.3046 318.071 61.1526C317.023 61.9206 315.799 62.3686 314.399 62.5046C312.999 62.6406 310.943 62.3286 308.223 61.5686C306.319 61.0486 304.951 60.8406 304.111 60.9526C303.271 61.0646 302.375 61.4726 301.407 62.1846ZM294.207 56.2726L299.727 63.8086L293.079 68.6726L287.559 61.1366L294.207 56.2726Z" fill="white"/>
<path d="M102.679 162C96.0625 162 89.4066 160.192 83.5106 156.672C75.3905 151.832 69.6545 144.336 67.7106 136.04C61.1185 135.568 55.0466 132.328 50.9986 127.112C48.0626 123.336 46.3905 118.84 46.1425 114.072C44.4065 112.888 42.8705 111.448 41.5745 109.792C35.2625 101.672 36.0545 90.2719 43.3745 83.1199C40.3265 70.1119 45.1345 56.4719 55.6866 48.2719C63.9666 41.8399 74.5106 39.5759 84.7026 42.0319C85.8866 39.3279 87.7347 36.9599 90.0707 35.1439C93.8227 32.2239 98.4945 30.9439 103.215 31.5359C107.935 32.1279 112.143 34.5199 115.055 38.2799C115.935 39.4159 116.671 40.6479 117.263 41.9599C126.887 40.3839 136.527 44.1439 142.519 51.8639C147.879 58.7599 149.495 67.7999 146.871 76.1279C147.919 77.0239 148.871 78.0159 149.703 79.0879C156.511 87.8479 154.927 100.52 146.159 107.328C143.487 109.408 140.319 110.776 136.975 111.312C135.231 117.84 131.495 123.48 126.143 127.632C119.391 132.88 110.743 135.072 102.311 133.696C102.223 141.464 104.031 152 112.727 159.536C112.903 159.688 112.975 159.92 112.927 160.144C112.879 160.368 112.711 160.552 112.487 160.616C109.303 161.536 105.991 161.992 102.679 162ZM76.5906 42.3199C69.3666 42.3199 62.3186 44.7039 56.4466 49.2639C46.1906 57.2399 41.5666 70.5519 44.6706 83.1759C44.7266 83.3919 44.6546 83.6239 44.4946 83.7839C37.4065 90.4719 36.5745 101.32 42.5585 109.024C43.8305 110.664 45.3585 112.072 47.0865 113.208C47.2545 113.32 47.3586 113.504 47.3666 113.712C47.5426 118.328 49.1425 122.696 51.9745 126.352C55.9025 131.408 61.8306 134.496 68.2386 134.824C68.5186 134.84 68.7585 135.04 68.8225 135.32C70.5905 143.456 76.1746 150.848 84.1506 155.6C92.3746 160.496 102.111 161.976 111.055 159.712C102.471 151.68 100.871 140.784 101.079 132.936C101.087 132.752 101.167 132.576 101.311 132.464C101.455 132.352 101.639 132.304 101.823 132.336C110.135 133.896 118.719 131.824 125.383 126.648C130.615 122.576 134.247 117.032 135.871 110.6C135.935 110.352 136.143 110.168 136.391 110.128C139.663 109.68 142.775 108.368 145.391 106.336C153.607 99.9519 155.095 88.0719 148.711 79.8559C147.847 78.7439 146.847 77.7199 145.743 76.8159C145.543 76.6479 145.463 76.3759 145.543 76.1359C148.215 68.0959 146.711 59.3119 141.519 52.6319C135.711 45.1599 126.311 41.5759 116.983 43.2799C116.687 43.3359 116.399 43.1759 116.287 42.9039C115.719 41.5199 114.967 40.2239 114.055 39.0479C111.343 35.5599 107.431 33.3279 103.047 32.7839C98.6626 32.2319 94.3186 33.4239 90.8306 36.1359C88.5266 37.9279 86.7267 40.3039 85.6387 43.0079C85.5187 43.3039 85.1987 43.4559 84.9027 43.3839C82.1427 42.6719 79.3506 42.3199 76.5906 42.3199Z" fill="#E6E6E6"/>
<path d="M80.4739 95.1029L69.4259 97.7029L69.1619 96.5989C68.7219 94.7189 68.5699 93.1429 68.7219 91.8709C68.8739 90.5989 69.2579 89.3749 69.8739 88.2069C70.4899 87.0389 71.9859 84.8869 74.3539 81.7509C75.6259 80.1029 76.1299 78.7429 75.8819 77.6789C75.6339 76.6149 75.1219 75.8549 74.3539 75.4149C73.5859 74.9749 72.5619 74.9029 71.2819 75.1989C69.9059 75.5269 68.8739 76.2469 68.1859 77.3669C67.4979 78.4869 67.2979 80.2149 67.5779 82.5429L55.9699 83.8069C55.3779 79.5669 56.0979 75.8709 58.1299 72.7269C60.1619 69.5749 63.8899 67.3669 69.3219 66.0869C73.5459 65.0949 77.1699 65.1749 80.1779 66.3269C84.2659 67.8789 86.7779 70.6469 87.7139 74.6149C88.1059 76.2629 88.0179 77.9589 87.4739 79.7029C86.9219 81.4469 85.5059 83.7589 83.2099 86.6309C81.6179 88.6469 80.6739 90.1829 80.3859 91.2389C80.0899 92.3029 80.1219 93.5909 80.4739 95.1029ZM69.7379 100.727L81.5699 97.9429L84.0259 108.383L72.1939 111.167L69.7379 100.727Z" fill="#EBEBEB"/>
<path d="M108.601 71.7658L100.929 69.4378L101.161 68.6698C101.561 67.3658 102.025 66.3498 102.569 65.6298C103.113 64.9018 103.777 64.2938 104.569 63.7978C105.361 63.3018 107.033 62.5178 109.593 61.4458C110.953 60.8858 111.745 60.2378 111.969 59.5018C112.193 58.7658 112.153 58.1178 111.841 57.5738C111.529 57.0298 110.929 56.6218 110.041 56.3498C109.089 56.0618 108.201 56.1338 107.385 56.5738C106.569 57.0138 105.833 57.9978 105.177 59.5178L97.6406 56.1658C98.7846 53.3658 100.537 51.3658 102.889 50.1658C105.249 48.9658 108.305 48.9338 112.073 50.0778C115.009 50.9658 117.185 52.3018 118.617 54.0778C120.561 56.4778 121.113 59.0538 120.281 61.8138C119.937 62.9578 119.281 63.9658 118.329 64.8378C117.377 65.7098 115.689 66.6138 113.273 67.5578C111.585 68.2218 110.465 68.8218 109.913 69.3658C109.361 69.9178 108.921 70.7178 108.601 71.7658ZM100.057 71.3898L108.273 73.8858L106.073 81.1338L97.8566 78.6378L100.057 71.3898Z" fill="#EBEBEB"/>
<path d="M199.999 325.186C285.665 325.186 355.111 321.132 355.111 316.13C355.111 311.129 285.665 307.074 199.999 307.074C114.333 307.074 44.8867 311.129 44.8867 316.13C44.8867 321.132 114.333 325.186 199.999 325.186Z" fill="#F5F5F5"/>
<path d="M126.086 181.09L125.35 180.778C126.014 179.218 126.39 177.914 126.51 176.81L127.302 176.898C127.182 178.082 126.782 179.45 126.086 181.09ZM125.774 171.93C124.222 168.522 121.334 166.37 117.43 165.714L117.566 164.922C121.75 165.626 124.838 167.938 126.502 171.602L125.774 171.93Z" fill="#005490"/>
<path d="M121.583 189.136L113.711 192.72L113.351 191.936C112.743 190.6 112.399 189.44 112.319 188.464C112.239 187.488 112.351 186.52 112.631 185.56C112.919 184.6 113.711 182.768 115.023 180.072C115.727 178.648 115.903 177.56 115.559 176.8C115.215 176.04 114.719 175.552 114.079 175.336C113.439 175.12 112.663 175.216 111.751 175.632C110.767 176.08 110.111 176.776 109.759 177.712C109.415 178.656 109.519 179.976 110.071 181.672L101.599 184.336C100.527 181.256 100.519 178.392 101.575 175.736C102.623 173.08 105.087 170.872 108.951 169.112C111.959 167.744 114.679 167.264 117.103 167.68C120.391 168.232 122.679 169.928 123.967 172.76C124.503 173.936 124.695 175.216 124.543 176.6C124.391 177.984 123.671 179.92 122.383 182.408C121.495 184.152 121.015 185.432 120.951 186.272C120.879 187.104 121.095 188.056 121.583 189.136ZM114.399 194.936L122.831 191.096L126.215 198.528L117.783 202.368L114.399 194.936Z" fill="#005490"/>
<path d="M102.111 206.92L98.1026 212.352L97.5586 211.952C96.6306 211.272 95.9586 210.616 95.5346 209.976C95.1106 209.344 94.8146 208.64 94.6466 207.872C94.4786 207.104 94.3266 205.552 94.1906 203.224C94.1266 201.984 93.8386 201.176 93.3106 200.792C92.7826 200.408 92.2626 200.264 91.7426 200.352C91.2226 200.448 90.7346 200.808 90.2706 201.44C89.7746 202.12 89.5826 202.84 89.7026 203.616C89.8226 204.392 90.3986 205.248 91.4226 206.192L86.6466 211.24C84.7426 209.544 83.6466 207.592 83.3586 205.384C83.0626 203.176 83.9026 200.736 85.8706 198.064C87.3986 195.984 89.0706 194.624 90.8786 193.984C93.3266 193.112 95.5346 193.4 97.4866 194.84C98.2946 195.44 98.9107 196.24 99.3347 197.24C99.7587 198.24 100.007 199.84 100.071 202.016C100.127 203.544 100.287 204.6 100.567 205.192C100.855 205.808 101.367 206.376 102.111 206.92ZM99.4146 213.608L103.703 207.784L108.839 211.568L104.551 217.392L99.4146 213.608Z" fill="#005490"/>
<path d="M187.276 313.249C185.98 313.249 184.724 312.545 184.084 311.313C180.868 305.105 176.828 297.817 169.564 289.929C168.716 289.009 168.404 287.705 168.756 286.505C171.452 277.137 175.692 264.329 175.732 264.201C176.356 262.321 178.388 261.297 180.268 261.921C182.148 262.545 183.172 264.577 182.548 266.457C182.508 266.577 178.86 277.609 176.212 286.585C182.892 294.161 187.012 301.353 190.468 308.017C191.38 309.777 190.692 311.945 188.932 312.849C188.396 313.121 187.828 313.249 187.276 313.249Z" fill="#407BFF"/>
<path d="M193.25 316.13H165.418L180.17 307.762L192.53 308.242L193.25 316.13Z" fill="#263238"/>
<path d="M190.585 282.441C203.253 278.481 210.863 266.759 207.581 256.258C204.299 245.757 191.369 240.454 178.7 244.413C166.032 248.372 158.422 260.095 161.704 270.596C164.986 281.097 177.916 286.4 190.585 282.441Z" fill="#263238"/>
<path d="M121.321 250.325C119.913 250.325 118.577 249.493 118.001 248.109C117.241 246.277 118.113 244.181 119.945 243.421C122.033 242.557 122.321 240.429 122.321 240.405C122.473 238.805 123.673 237.493 125.257 237.205C126.113 237.053 126.937 236.805 127.897 236.533C132.761 235.109 138.777 233.349 157.745 238.661C176.449 228.197 176.665 208.581 176.665 207.733C176.665 205.757 178.265 204.141 180.241 204.141C180.241 204.141 180.249 204.141 180.257 204.141C182.225 204.141 183.833 205.725 183.841 207.701C183.849 208.741 183.729 233.365 159.809 245.701C158.993 246.125 158.049 246.213 157.169 245.957C139.097 240.733 134.001 242.221 129.913 243.421C129.553 243.525 129.185 243.637 128.809 243.741C127.921 246.021 126.081 248.653 122.697 250.053C122.249 250.237 121.785 250.325 121.321 250.325Z" fill="#263238"/>
<path d="M163.266 224.651C156.458 197.595 138.322 127.803 196.442 123.539C248.586 119.715 262.898 189.115 266.37 213.163C268.394 227.179 269.082 239.883 269.194 249.819C269.346 262.627 260.346 273.675 247.786 276.227C219.378 281.995 192.49 282.819 174.386 275.675C169.49 273.739 166.53 268.755 167.002 263.515C167.706 255.731 167.722 242.363 163.266 224.651Z" fill="#407BFF"/>
<path opacity="0.1" d="M266.368 213.155C263.088 190.499 250.192 127.523 205.04 123.587C199.784 123.131 194.6 125.715 192.184 130.403C190.168 134.307 190.232 139.035 193.248 143.715C203.2 159.147 226.936 212.483 223.352 241.547C221.72 254.771 213.424 265.331 220.64 280.195C229.352 279.475 238.488 278.123 247.792 276.227C260.352 273.683 269.352 262.635 269.2 249.819C269.08 239.883 268.4 227.171 266.368 213.155Z" fill="black"/>
<path d="M258.591 250.17C258.391 250.17 258.231 250.01 258.231 249.818C258.087 237.458 257.135 225.138 255.407 213.21C246.767 153.49 223.503 123.282 188.127 125.89C187.935 125.914 187.759 125.754 187.743 125.562C187.727 125.362 187.879 125.194 188.071 125.178C223.871 122.538 247.407 152.954 256.111 213.114C257.839 225.074 258.791 237.426 258.943 249.818C258.951 250.01 258.791 250.17 258.591 250.17Z" fill="#263238"/>
<path d="M258.042 284.355C270.71 280.395 278.32 268.673 275.038 258.172C271.756 247.671 258.826 242.368 246.157 246.327C233.489 250.287 225.879 262.009 229.161 272.51C232.443 283.011 245.373 288.314 258.042 284.355Z" fill="#263238"/>
<path d="M260.241 313.249C258.945 313.249 257.689 312.545 257.049 311.313C253.833 305.105 249.793 297.817 242.529 289.929C241.681 289.009 241.369 287.705 241.721 286.505C244.417 277.137 248.657 264.329 248.697 264.201C249.321 262.321 251.345 261.297 253.233 261.921C255.113 262.545 256.137 264.577 255.513 266.457C255.473 266.577 251.825 277.609 249.177 286.585C255.857 294.161 259.977 301.353 263.433 308.017C264.345 309.777 263.657 311.945 261.897 312.849C261.353 313.121 260.793 313.249 260.241 313.249Z" fill="#407BFF"/>
<path d="M252.705 203.866C251.417 203.866 250.169 203.17 249.521 201.946C248.601 200.194 249.273 198.026 251.025 197.106C251.713 196.738 267.337 188.202 271.729 167.69C261.313 163.33 242.593 153.498 238.497 148.554C238.097 148.074 237.833 147.498 237.729 146.89C237.633 146.354 236.961 142.106 238.529 138.09L236.641 134.442C235.729 132.682 236.417 130.514 238.177 129.602C239.937 128.69 242.105 129.378 243.017 131.138L245.737 136.386C246.321 137.506 246.265 138.858 245.601 139.93C244.745 141.314 244.633 143.338 244.705 144.658C249.313 148.826 267.937 158.69 277.049 162.074C278.649 162.666 279.609 164.306 279.345 165.986C275.289 192.202 255.233 203.002 254.377 203.45C253.833 203.73 253.265 203.866 252.705 203.866Z" fill="#263238"/>
<path d="M241.259 148.057C240.923 148.057 240.579 147.961 240.275 147.761C239.443 147.217 239.211 146.105 239.755 145.281C239.875 145.089 242.843 140.617 247.355 139.409C248.307 139.153 249.299 139.721 249.555 140.681C249.811 141.641 249.243 142.625 248.283 142.881C245.131 143.729 242.779 147.217 242.755 147.249C242.419 147.769 241.843 148.057 241.259 148.057Z" fill="#263238"/>
<path d="M266.219 316.13H238.387L253.139 307.762L265.499 308.242L266.219 316.13Z" fill="#263238"/>
<path d="M207.94 208.938C218.467 208.006 226.321 199.569 225.482 190.094C224.643 180.618 215.429 173.693 204.901 174.625C194.374 175.557 186.52 183.994 187.359 193.469C188.198 202.945 197.412 209.871 207.94 208.938Z" fill="white"/>
<path d="M204.36 202.678C207.152 201.882 208.241 197.118 206.794 192.036C205.346 186.954 201.909 183.479 199.117 184.275C196.326 185.07 195.236 189.835 196.684 194.916C198.132 199.998 201.569 203.473 204.36 202.678Z" fill="#263238"/>
<path d="M184.645 195.027C196.725 193.475 220.653 186.651 224.597 183.899C221.485 174.811 207.029 167.035 194.093 171.411C182.429 175.363 184.645 195.027 184.645 195.027Z" fill="#263238"/>
<path d="M186.988 200.868C201.98 198.02 221.476 193.236 227.052 190.164C226.708 199.948 223.868 209.86 208.556 213.204C196.052 215.948 186.988 200.868 186.988 200.868Z" fill="#263238"/>
<path d="M174.636 210.268C180.061 206.679 180.776 198.205 176.234 191.34C171.692 184.475 163.612 181.819 158.188 185.408C152.764 188.997 152.049 197.471 156.591 204.336C161.133 211.201 169.212 213.857 174.636 210.268Z" fill="white"/>
<path d="M166.673 198.082C167.585 202.37 166.801 205.946 164.921 206.066C163.041 206.194 160.777 202.818 159.873 198.53C158.961 194.242 159.745 190.666 161.625 190.546C163.497 190.426 165.761 193.794 166.673 198.082Z" fill="#263238"/>
<path d="M151.804 196.441C159.908 197.401 176.004 196.329 178.676 194.865C176.7 187.105 167.116 178.329 158.404 179.449C150.548 180.473 151.804 196.441 151.804 196.441Z" fill="#263238"/>
<path d="M153.305 201.489C163.377 201.945 176.481 201.689 180.249 200.273C179.905 207.961 177.889 215.289 167.601 215.169C159.193 215.073 153.305 201.489 153.305 201.489Z" fill="#263238"/>
<path d="M211.274 166.577C196.162 166.577 186.122 159.113 185.626 158.737C184.05 157.537 183.738 155.289 184.938 153.705C186.13 152.129 188.378 151.817 189.954 153.009C190.13 153.137 202.058 161.841 218.626 158.697C220.578 158.329 222.45 159.609 222.818 161.553C223.186 163.497 221.906 165.377 219.962 165.745C216.914 166.329 214.01 166.577 211.274 166.577Z" fill="#263238"/>
<path d="M147.105 160.394C146.705 160.394 146.289 160.331 145.889 160.187C144.025 159.515 143.057 157.458 143.729 155.594C145.633 150.298 148.785 146.858 153.105 145.378C160.937 142.682 169.369 147.922 169.721 148.146C171.393 149.202 171.897 151.418 170.841 153.098C169.785 154.77 167.577 155.274 165.897 154.218C164.265 153.202 159.201 150.85 155.417 152.17C153.241 152.93 151.625 154.842 150.481 158.018C149.953 159.482 148.577 160.394 147.105 160.394Z" fill="#263238"/>
<path d="M175.385 220.938C175.289 220.938 175.185 220.922 175.089 220.898C174.521 220.73 174.193 220.154 174.353 219.586C174.377 219.49 175.057 217.162 178.001 215.642C182.121 213.522 188.393 213.962 196.649 216.946C197.209 217.146 197.497 217.77 197.297 218.322C197.097 218.882 196.481 219.17 195.921 218.97C186.457 215.538 181.537 216.282 179.081 217.506C176.937 218.578 176.449 220.106 176.425 220.17C176.281 220.634 175.849 220.938 175.385 220.938Z" fill="#263238"/>
<path d="M141.508 216.996C120.628 218.868 105.676 227.516 105.676 227.516C111.86 226.348 133.964 253.7 139.644 274.788C150.124 270.9 162.348 268.252 175.388 266.188C167.492 244.452 153.052 219.82 141.508 216.996Z" fill="#407BFF"/>
<path opacity="0.6" d="M141.508 216.996C120.628 218.868 105.676 227.516 105.676 227.516C111.86 226.348 133.964 253.7 139.644 274.788C150.124 270.9 162.348 268.252 175.388 266.188C167.492 244.452 153.052 219.82 141.508 216.996Z" fill="white"/>
<path d="M141.506 216.995C127.842 215.451 105.658 226.891 105.658 226.891C101.73 229.395 102.794 234.099 104.938 236.083C106.994 233.131 129.922 225.451 138.546 224.419C134.258 220.451 138.242 217.571 141.506 216.995Z" fill="#407BFF"/>
<path opacity="0.2" d="M141.506 216.995C127.842 215.451 105.658 226.891 105.658 226.891C101.73 229.395 102.794 234.099 104.938 236.083C106.994 233.131 129.922 225.451 138.546 224.419C134.258 220.451 138.242 217.571 141.506 216.995Z" fill="white"/>
<path d="M121.331 250.322C120.155 250.322 119.011 249.746 118.323 248.69C115.723 244.706 117.347 238.618 117.699 237.442C118.267 235.546 120.267 234.466 122.163 235.034C124.059 235.602 125.139 237.594 124.579 239.49C123.995 241.498 123.875 244.066 124.339 244.77C125.419 246.426 124.955 248.65 123.291 249.738C122.683 250.138 122.003 250.322 121.331 250.322Z" fill="#263238"/>
<path d="M176.711 74.0391H196.519V79.1431H184.119V82.9431H195.623V87.8231H184.119V92.5351H196.879V97.9511H176.711V74.0391Z" fill="#263238"/>
<path d="M200.957 97.9591V74.0391H213.277C215.565 74.0391 217.309 74.2311 218.517 74.6231C219.725 75.0151 220.701 75.7431 221.437 76.7991C222.173 77.8631 222.549 79.1511 222.549 80.6711C222.549 81.9991 222.269 83.1431 221.701 84.1031C221.133 85.0631 220.357 85.8471 219.365 86.4471C218.733 86.8311 217.869 87.1431 216.773 87.3911C217.653 87.6871 218.293 87.9831 218.693 88.2711C218.965 88.4711 219.357 88.8871 219.877 89.5271C220.397 90.1671 220.741 90.6631 220.909 91.0151L224.485 97.9431H216.133L212.181 90.6311C211.677 89.6871 211.237 89.0711 210.845 88.7911C210.309 88.4231 209.709 88.2391 209.037 88.2391H208.381V97.9511H200.957V97.9591ZM208.381 83.7351H211.501C211.837 83.7351 212.493 83.6231 213.461 83.4071C213.949 83.3111 214.349 83.0631 214.661 82.6551C214.973 82.2551 215.125 81.7911 215.125 81.2711C215.125 80.5031 214.877 79.9031 214.389 79.4951C213.901 79.0791 212.981 78.8711 211.629 78.8711H208.381V83.7351Z" fill="#263238"/>
<path d="M226.953 97.9591V74.0391H239.273C241.561 74.0391 243.305 74.2311 244.513 74.6231C245.721 75.0151 246.697 75.7431 247.433 76.7991C248.169 77.8631 248.545 79.1511 248.545 80.6711C248.545 81.9991 248.265 83.1431 247.697 84.1031C247.129 85.0631 246.353 85.8471 245.361 86.4471C244.729 86.8311 243.865 87.1431 242.769 87.3911C243.649 87.6871 244.289 87.9831 244.689 88.2711C244.961 88.4711 245.353 88.8871 245.873 89.5271C246.393 90.1671 246.737 90.6631 246.905 91.0151L250.481 97.9431H242.129L238.177 90.6311C237.673 89.6871 237.233 89.0711 236.841 88.7911C236.305 88.4231 235.705 88.2391 235.033 88.2391H234.377V97.9511H226.953V97.9591ZM234.377 83.7351H237.497C237.833 83.7351 238.489 83.6231 239.457 83.4071C239.945 83.3111 240.345 83.0631 240.657 82.6551C240.969 82.2551 241.121 81.7911 241.121 81.2711C241.121 80.5031 240.873 79.9031 240.385 79.4951C239.897 79.0791 238.977 78.8711 237.625 78.8711H234.377V83.7351Z" fill="#263238"/>
<path d="M251.344 86.0168C251.344 82.1128 252.432 79.0728 254.608 76.8968C256.784 74.7208 259.816 73.6328 263.696 73.6328C267.68 73.6328 270.744 74.7048 272.896 76.8408C275.048 78.9768 276.128 81.9768 276.128 85.8248C276.128 88.6168 275.656 90.9128 274.72 92.7048C273.776 94.4968 272.416 95.8888 270.64 96.8808C268.864 97.8728 266.648 98.3768 263.992 98.3768C261.296 98.3768 259.064 97.9448 257.296 97.0888C255.528 96.2328 254.096 94.8728 253 93.0088C251.896 91.1448 251.344 88.8168 251.344 86.0168ZM258.736 86.0488C258.736 88.4648 259.184 90.2008 260.08 91.2568C260.976 92.3128 262.2 92.8408 263.744 92.8408C265.336 92.8408 266.56 92.3208 267.432 91.2888C268.304 90.2568 268.736 88.4008 268.736 85.7208C268.736 83.4728 268.28 81.8248 267.376 80.7848C266.464 79.7448 265.232 79.2248 263.68 79.2248C262.192 79.2248 260.992 79.7528 260.088 80.8088C259.192 81.8728 258.736 83.6168 258.736 86.0488Z" fill="#263238"/>
<path d="M280.215 97.9591V74.0391H292.535C294.823 74.0391 296.567 74.2311 297.775 74.6231C298.983 75.0151 299.959 75.7431 300.695 76.7991C301.431 77.8631 301.807 79.1511 301.807 80.6711C301.807 81.9991 301.527 83.1431 300.959 84.1031C300.391 85.0631 299.615 85.8471 298.623 86.4471C297.991 86.8311 297.127 87.1431 296.031 87.3911C296.911 87.6871 297.551 87.9831 297.951 88.2711C298.223 88.4711 298.615 88.8871 299.135 89.5271C299.655 90.1671 299.999 90.6631 300.167 91.0151L303.743 97.9431H295.391L291.439 90.6311C290.935 89.6871 290.495 89.0711 290.103 88.7911C289.567 88.4231 288.967 88.2391 288.295 88.2391H287.639V97.9511H280.215V97.9591ZM287.639 83.7351H290.759C291.095 83.7351 291.751 83.6231 292.719 83.4071C293.207 83.3111 293.607 83.0631 293.919 82.6551C294.231 82.2551 294.383 81.7911 294.383 81.2711C294.383 80.5031 294.135 79.9031 293.647 79.4951C293.159 79.0791 292.239 78.8711 290.887 78.8711H287.639V83.7351Z" fill="#263238"/>
<path d="M105.378 97.6014V92.2403H93.4727V88.2473C93.6946 87.8529 93.978 87.3722 94.3231 86.8053C94.6928 86.2384 95.1242 85.5852 95.6172 84.8458L103.566 73.1994H110.998V87.8775H114.732V92.2403H110.998V97.6014H105.378ZM98.575 87.8775H105.452V80.483C105.452 79.99 105.464 79.4847 105.489 78.9671C105.513 78.4248 105.538 77.8826 105.563 77.3403H105.489C105.242 77.8579 104.947 78.4002 104.601 78.9671C104.281 79.5094 103.973 80.0023 103.677 80.446L99.3514 86.7683C99.2282 86.9655 99.1049 87.1504 98.9817 87.3229C98.8584 87.4955 98.7229 87.6803 98.575 87.8775ZM127.69 97.9711C124.363 97.9711 121.836 96.9112 120.111 94.7914C118.41 92.6717 117.56 89.5413 117.56 85.4004C117.56 81.2594 118.41 78.129 120.111 76.0093C121.836 73.8895 124.363 72.8296 127.69 72.8296C131.018 72.8296 133.532 73.8895 135.233 76.0093C136.958 78.129 137.821 81.2594 137.821 85.4004C137.821 89.5413 136.958 92.6717 135.233 94.7914C133.532 96.9112 131.018 97.9711 127.69 97.9711ZM127.69 93.0167C128.602 93.0167 129.342 92.7703 129.909 92.2773C130.476 91.7597 130.882 90.9463 131.129 89.8371C131.4 88.7033 131.536 87.2243 131.536 85.4004C131.536 83.5764 131.4 82.1098 131.129 81.0006C130.882 79.8668 130.476 79.0534 129.909 78.5604C129.342 78.0428 128.602 77.784 127.69 77.784C126.803 77.784 126.064 78.0428 125.472 78.5604C124.905 79.0534 124.486 79.8668 124.215 81.0006C123.968 82.1098 123.845 83.5764 123.845 85.4004C123.845 87.2243 123.968 88.7033 124.215 89.8371C124.486 90.9463 124.905 91.7597 125.472 92.2773C126.064 92.7703 126.803 93.0167 127.69 93.0167ZM153.074 97.6014V92.2403H141.169V88.2473C141.391 87.8529 141.674 87.3722 142.019 86.8053C142.389 86.2384 142.82 85.5852 143.313 84.8458L151.262 73.1994H158.694V87.8775H162.428V92.2403H158.694V97.6014H153.074ZM146.271 87.8775H153.148V80.483C153.148 79.99 153.16 79.4847 153.185 78.9671C153.21 78.4248 153.234 77.8826 153.259 77.3403H153.185C152.939 77.8579 152.643 78.4002 152.298 78.9671C151.977 79.5094 151.669 80.0023 151.373 80.446L147.048 86.7683C146.924 86.9655 146.801 87.1504 146.678 87.3229C146.555 87.4955 146.419 87.6803 146.271 87.8775Z" fill="#005490"/>
</g>
</g>
<defs>
<clipPath id="clip0_199_618">
<rect width="400" height="325" fill="white" transform="translate(0 0.5)"/>
</clipPath>
</defs>
</svg>
